<svg width="37" height="37" viewBox="0 0 37 37" fill="none" xmlns="http://www.w3.org/2000/svg">
<path d="M18.2102 3.31454C9.9302 3.30964 3.20623 10.0257 3.20133 18.3057C3.19643 26.5857 9.91245 33.3096 18.1925 33.3145C26.4725 33.3194 33.1964 26.6034 33.2013 18.3234C33.2062 10.0434 26.4902 3.31944 18.2102 3.31454ZM18.2075 7.81454C20.6975 7.81601 22.7063 9.8272 22.7049 12.3172C22.7034 14.8072 20.6922 16.816 18.2022 16.8145C15.7122 16.8131 13.7034 14.8019 13.7049 12.3119C13.7064 9.82188 15.7175 7.81307 18.2075 7.81454ZM18.1949 29.1145C16.4127 29.1135 14.6585 28.6714 13.0886 27.8277C11.5188 26.984 10.1821 25.765 9.1978 24.2792C9.24456 21.2942 15.2005 19.6628 18.2005 19.6645C21.1855 19.6663 27.1546 21.3048 27.1978 24.2899C26.2117 25.7744 24.8736 26.9919 23.3028 27.8338C21.7319 28.6756 19.9771 29.1156 18.1949 29.1145Z" fill="#285E61"/>
</svg>
