<svg xmlns="http://www.w3.org/2000/svg" width="19" height="19" viewBox="0 0 19 19" fill="none">
  <path d="M17.831 16.7031L12.8474 11.7123C13.9367 10.2818 14.4421 8.49084 14.2614 6.70175C14.0806 4.91266 13.2272 3.25903 11.8739 2.07542C10.5205 0.891803 8.76817 0.26657 6.97142 0.326216C5.17467 0.385861 3.46765 1.12593 2.19571 2.3967C0.923762 3.66746 0.181864 5.37405 0.120108 7.17119C0.0583522 8.96833 0.681349 10.7218 1.86306 12.077C3.04477 13.4321 4.69696 14.2877 6.48537 14.4706C8.27378 14.6535 10.0649 14.1501 11.4963 13.0622L16.4799 18.053C16.6604 18.2293 16.9026 18.328 17.1549 18.3282C17.4072 18.3283 17.6495 18.2299 17.8302 18.0538C18.0092 17.8747 18.1099 17.6318 18.11 17.3786C18.1102 17.1254 18.0098 16.8824 17.831 16.7031ZM2.07722 7.43547C2.07782 6.41558 2.38077 5.41877 2.94775 4.57109C3.51472 3.72342 4.32027 3.06295 5.26251 2.67321C6.20476 2.28348 7.24138 2.18197 8.2413 2.38153C9.24122 2.58109 10.1595 3.07276 10.8801 3.79436C11.6006 4.51596 12.0911 5.43508 12.2894 6.43549C12.4878 7.43591 12.385 8.47268 11.9943 9.41471C11.6035 10.3567 10.9423 11.1617 10.0942 11.7278C9.24604 12.2939 8.24913 12.5958 7.2295 12.5952C5.86272 12.5928 4.5527 12.0482 3.58681 11.0809C2.62092 10.1136 2.07803 8.8026 2.07722 7.43547Z" fill="black"/>
</svg>